<svg xmlns="http://www.w3.org/2000/svg" xmlns:xlink="http://www.w3.org/1999/xlink" width="280" zoomAndPan="magnify" viewBox="0 0 210 74.999997" height="100" preserveAspectRatio="xMidYMid meet" version="1.0"><defs><g/></defs><g fill="#89bacd" fill-opacity="1"><g transform="translate(-2.811604, 59.395029)"><g><path d="M 10.140625 0.578125 C 8.242188 0.578125 6.769531 0.0507812 5.71875 -1 C 4.664062 -2.050781 4.140625 -3.570312 4.140625 -5.5625 L 4.140625 -39.421875 C 4.140625 -43.515625 6.207031 -45.5625 10.34375 -45.5625 L 31.859375 -45.5625 C 34.960938 -45.5625 36.515625 -44.050781 36.515625 -41.03125 C 36.515625 -37.9375 34.960938 -36.390625 31.859375 -36.390625 L 16.03125 -36.390625 L 16.03125 -27.203125 L 30.4375 -27.203125 C 33.539062 -27.203125 35.09375 -25.695312 35.09375 -22.6875 C 35.09375 -19.625 33.539062 -18.09375 30.4375 -18.09375 L 16.03125 -18.09375 L 16.03125 -5.5625 C 16.03125 -1.46875 14.066406 0.578125 10.140625 0.578125 Z M 10.140625 0.578125 "/></g></g></g><g fill="#89bacd" fill-opacity="1"><g transform="translate(34.60518, 59.395029)"><g><path d="M 9.046875 -36.96875 C 7.023438 -36.96875 5.460938 -37.441406 4.359375 -38.390625 C 3.265625 -39.335938 2.71875 -40.710938 2.71875 -42.515625 C 2.71875 -44.285156 3.265625 -45.644531 4.359375 -46.59375 C 5.460938 -47.539062 7.023438 -48.015625 9.046875 -48.015625 C 13.316406 -48.015625 15.453125 -46.179688 15.453125 -42.515625 C 15.453125 -40.710938 14.898438 -39.335938 13.796875 -38.390625 C 12.703125 -37.441406 11.117188 -36.96875 9.046875 -36.96875 Z M 9.046875 0.578125 C 7.191406 0.578125 5.78125 0.0390625 4.8125 -1.03125 C 3.84375 -2.113281 3.359375 -3.664062 3.359375 -5.6875 L 3.359375 -26.109375 C 3.359375 -28.128906 3.84375 -29.675781 4.8125 -30.75 C 5.78125 -31.832031 7.191406 -32.375 9.046875 -32.375 C 10.898438 -32.375 12.332031 -31.832031 13.34375 -30.75 C 14.351562 -29.675781 14.859375 -28.128906 14.859375 -26.109375 L 14.859375 -5.6875 C 14.859375 -3.664062 14.363281 -2.113281 13.375 -1.03125 C 12.382812 0.0390625 10.941406 0.578125 9.046875 0.578125 Z M 9.046875 0.578125 "/></g></g></g><g fill="#89bacd" fill-opacity="1"><g transform="translate(52.764275, 59.395029)"><g><path d="M 20.03125 0.703125 C 15.207031 0.703125 11.628906 -0.414062 9.296875 -2.65625 C 6.972656 -4.894531 5.8125 -8.273438 5.8125 -12.796875 L 5.8125 -23.328125 L 3.625 -23.328125 C 0.738281 -23.328125 -0.703125 -24.75 -0.703125 -27.59375 C -0.703125 -30.394531 0.738281 -31.796875 3.625 -31.796875 L 5.8125 -31.796875 L 5.8125 -35.796875 C 5.8125 -37.691406 6.304688 -39.132812 7.296875 -40.125 C 8.285156 -41.125 9.707031 -41.625 11.5625 -41.625 C 15.394531 -41.625 17.3125 -39.679688 17.3125 -35.796875 L 17.3125 -31.796875 L 22.625 -31.796875 C 25.550781 -31.796875 27.015625 -30.394531 27.015625 -27.59375 C 27.015625 -24.75 25.550781 -23.328125 22.625 -23.328125 L 17.3125 -23.328125 L 17.3125 -13.1875 C 17.3125 -10.082031 18.882812 -8.53125 22.03125 -8.53125 C 22.632812 -8.53125 23.21875 -8.59375 23.78125 -8.71875 C 24.34375 -8.851562 24.859375 -8.921875 25.328125 -8.921875 C 26.015625 -8.960938 26.570312 -8.753906 27 -8.296875 C 27.4375 -7.847656 27.65625 -6.828125 27.65625 -5.234375 C 27.65625 -3.941406 27.460938 -2.851562 27.078125 -1.96875 C 26.691406 -1.082031 26.003906 -0.445312 25.015625 -0.0625 C 24.410156 0.15625 23.585938 0.335938 22.546875 0.484375 C 21.515625 0.628906 20.675781 0.703125 20.03125 0.703125 Z M 20.03125 0.703125 "/></g></g></g><g fill="#89bacd" fill-opacity="1"><g transform="translate(80.293722, 59.395029)"><g><path d="M 10.078125 0.578125 C 8.179688 0.578125 6.71875 0.0625 5.6875 -0.96875 C 4.65625 -2 4.140625 -3.507812 4.140625 -5.5 L 4.140625 -40.0625 C 4.140625 -42.050781 4.65625 -43.5625 5.6875 -44.59375 C 6.71875 -45.625 8.179688 -46.140625 10.078125 -46.140625 C 11.972656 -46.140625 13.4375 -45.625 14.46875 -44.59375 C 15.507812 -43.5625 16.03125 -42.050781 16.03125 -40.0625 L 16.03125 -27.984375 L 34.828125 -27.984375 L 34.828125 -40.0625 C 34.828125 -42.050781 35.34375 -43.5625 36.375 -44.59375 C 37.414062 -45.625 38.882812 -46.140625 40.78125 -46.140625 C 42.675781 -46.140625 44.128906 -45.625 45.140625 -44.59375 C 46.148438 -43.5625 46.65625 -42.050781 46.65625 -40.0625 L 46.65625 -5.5 C 46.65625 -3.507812 46.148438 -2 45.140625 -0.96875 C 44.128906 0.0625 42.675781 0.578125 40.78125 0.578125 C 38.84375 0.578125 37.363281 0.0625 36.34375 -0.96875 C 35.332031 -2 34.828125 -3.507812 34.828125 -5.5 L 34.828125 -18.21875 L 16.03125 -18.21875 L 16.03125 -5.5 C 16.03125 -3.507812 15.519531 -2 14.5 -0.96875 C 13.488281 0.0625 12.015625 0.578125 10.078125 0.578125 Z M 10.078125 0.578125 "/></g></g></g><g fill="#89bacd" fill-opacity="1"><g transform="translate(131.08749, 59.395029)"><g><path d="M 15.25 0.703125 C 11.113281 0.703125 8.066406 -0.425781 6.109375 -2.6875 C 4.148438 -4.945312 3.171875 -8.398438 3.171875 -13.046875 L 3.171875 -26.625 C 3.171875 -30.457031 5.085938 -32.375 8.921875 -32.375 C 10.773438 -32.375 12.195312 -31.878906 13.1875 -30.890625 C 14.175781 -29.898438 14.671875 -28.476562 14.671875 -26.625 L 14.671875 -12.734375 C 14.671875 -9.628906 16.003906 -8.078125 18.671875 -8.078125 C 20.222656 -8.078125 21.492188 -8.632812 22.484375 -9.75 C 23.472656 -10.875 23.96875 -12.363281 23.96875 -14.21875 L 23.96875 -26.625 C 23.96875 -30.457031 25.890625 -32.375 29.734375 -32.375 C 31.578125 -32.375 32.992188 -31.878906 33.984375 -30.890625 C 34.984375 -29.898438 35.484375 -28.476562 35.484375 -26.625 L 35.484375 -5.234375 C 35.484375 -1.359375 33.628906 0.578125 29.921875 0.578125 C 26.597656 0.578125 24.722656 -0.972656 24.296875 -4.078125 C 22.234375 -0.890625 19.21875 0.703125 15.25 0.703125 Z M 15.25 0.703125 "/></g></g></g><g fill="#89bacd" fill-opacity="1"><g transform="translate(169.92599, 59.395029)"><g><path d="M 24.296875 0.703125 C 22.179688 0.703125 20.25 0.253906 18.5 -0.640625 C 16.757812 -1.546875 15.460938 -2.753906 14.609375 -4.265625 C 14.265625 -1.035156 12.410156 0.578125 9.046875 0.578125 C 5.253906 0.578125 3.359375 -1.359375 3.359375 -5.234375 L 3.359375 -40.328125 C 3.359375 -44.203125 5.253906 -46.140625 9.046875 -46.140625 C 10.898438 -46.140625 12.332031 -45.644531 13.34375 -44.65625 C 14.351562 -43.664062 14.859375 -42.222656 14.859375 -40.328125 L 14.859375 -27.984375 C 15.765625 -29.359375 17.066406 -30.453125 18.765625 -31.265625 C 20.472656 -32.085938 22.316406 -32.5 24.296875 -32.5 C 27.054688 -32.5 29.476562 -31.832031 31.5625 -30.5 C 33.65625 -29.164062 35.28125 -27.257812 36.4375 -24.78125 C 37.601562 -22.300781 38.1875 -19.335938 38.1875 -15.890625 C 38.1875 -12.492188 37.59375 -9.546875 36.40625 -7.046875 C 35.226562 -4.546875 33.59375 -2.628906 31.5 -1.296875 C 29.414062 0.0351562 27.015625 0.703125 24.296875 0.703125 Z M 20.6875 -7.75 C 22.40625 -7.75 23.820312 -8.394531 24.9375 -9.6875 C 26.0625 -10.976562 26.625 -13.046875 26.625 -15.890625 C 26.625 -18.785156 26.0625 -20.867188 24.9375 -22.140625 C 23.820312 -23.410156 22.40625 -24.046875 20.6875 -24.046875 C 18.914062 -24.046875 17.46875 -23.410156 16.34375 -22.140625 C 15.226562 -20.867188 14.671875 -18.785156 14.671875 -15.890625 C 14.671875 -13.046875 15.226562 -10.976562 16.34375 -9.6875 C 17.46875 -8.394531 18.914062 -7.75 20.6875 -7.75 Z M 20.6875 -7.75 "/></g></g></g></svg>